<svg width="150" height="150" viewBox="0 0 150 150" fill="none" xmlns="http://www.w3.org/2000/svg">
<g clip-path="url(#clip0_63_48)">
<path d="M74.5501 89.7001C77.5338 89.7001 80.3953 88.5148 82.505 86.405C84.6148 84.2952 85.8001 81.4338 85.8001 78.4501C85.8001 75.4664 84.6148 72.6049 82.5051 70.4951C80.3953 68.3853 77.5338 67.2001 74.5501 67.2001L68.1001 67.2001V89.7001H74.5501Z" fill="#5E2BFF"/>
<path fill-rule="evenodd" clip-rule="evenodd" d="M75 150C116.421 150 150 116.421 150 75C150 33.5786 116.421 0 75 0C33.5786 0 0 33.5786 0 75C0 116.421 33.5786 150 75 150ZM118.128 104.4L75.0001 29.7001L31.872 104.4H118.128Z" fill="#5E2BFF"/>
</g>
<defs>
<clipPath id="clip0_63_48">
<rect width="150" height="150" fill="white"/>
</clipPath>
</defs>
</svg>
