<svg width="150" height="150" viewBox="0 0 150 150" fill="none" xmlns="http://www.w3.org/2000/svg">
<path d="M127.253 33.1041L127.561 37.3292L124.438 34.4548L121.313 37.3292L121.621 33.1041L117.414 32.4649L120.928 30.0727L118.807 26.4008L122.874 27.6392L124.438 23.6994L126 27.6392L130.067 26.4008L127.95 30.0727L131.46 32.4649L127.253 33.1041ZM125.197 82.7668C123.909 82.3821 79.3272 68.2393 74.6757 68.2393C70.0242 68.2393 26.1102 82.3821 24.8244 82.7668C23.5421 83.1488 19.3172 84.8546 19.3172 81.2712C19.3172 77.6875 25.1917 75.9337 42.3993 67.7416C59.6107 59.5496 70.5078 53.7404 74.6757 53.7404C78.8448 53.7404 90.4115 59.5496 107.622 67.7416C124.829 75.9337 130.705 77.6875 130.705 81.2712C130.705 84.8546 126.483 83.1488 125.197 82.7668ZM36.513 87.8377C40.6751 86.5284 44.3962 85.3701 47.7207 84.3437C58.0759 81.1495 64.5845 79.2565 68.6671 78.1371C71.073 77.4752 72.6409 77.0835 73.6566 76.8537C74.1639 76.7357 74.5371 76.6626 74.8062 76.6119C75.0112 76.6472 75.618 76.7629 75.9769 76.8537C77.1881 77.1602 79.0193 77.5733 82.9418 78.6607C87.0636 79.8024 93.0922 81.5541 101.91 84.2341C105.358 85.2816 109.231 86.4728 113.586 87.8235C107.862 90.4621 102.68 93.8369 95.9461 92.5735C88.6991 91.217 82.6848 84.9866 75.0762 85.0835C66.7452 85.1895 60.4545 92.3295 52.2833 93.0077C46.4738 93.4911 41.5972 90.251 36.513 87.8377ZM126.66 102.518C123.828 101.815 120.848 101.718 117.515 102.833C110.051 105.328 104.123 110.76 95.8572 109.212C88.6127 107.855 82.598 101.627 74.9876 101.721C66.6563 101.828 60.3692 108.967 52.1945 109.647C44.1593 110.314 37.9079 103.856 30.4181 102.326C27.8203 101.795 25.4702 101.949 23.2399 102.483C22.4719 100.079 21.8059 97.523 21.2335 94.7476C24.06 93.7801 27.0322 93.3166 30.4181 94.0066C37.9079 95.5354 44.1593 101.996 52.1945 101.326C60.3692 100.648 66.6563 93.5089 74.9876 93.4026C82.598 93.3084 88.6127 99.5365 95.8572 100.893C104.123 102.44 110.051 97.0099 117.515 94.5139C121.645 93.1339 125.23 93.6128 128.667 94.7971C128.094 97.5664 127.428 100.117 126.66 102.518ZM117.346 119.115C117.266 119.196 117.185 119.258 117.082 119.312C116.208 119.742 111.554 122.042 109.373 123.086C105.178 125.094 100.917 126.798 95.8572 125.852C88.6127 124.492 82.598 118.264 74.9876 118.36C66.6563 118.465 60.3692 125.608 52.1945 126.286C47.9434 126.64 44.0822 124.942 40.3824 123.092C38.2101 122.007 33.8608 119.907 33.0194 119.504C32.9127 119.45 32.8333 119.392 32.7503 119.306C30.1632 116.661 28.0538 113.726 26.359 110.337C27.6508 110.27 28.9995 110.356 30.4181 110.644C37.9079 112.175 44.1593 118.633 52.1945 117.967C60.3692 117.285 66.6563 110.147 74.9876 110.04C82.598 109.946 88.6127 116.174 95.8572 117.531C104.123 119.078 110.051 113.646 117.515 111.152C119.654 110.438 121.647 110.221 123.553 110.345C121.918 113.608 119.808 116.549 117.346 119.115ZM86.6725 138.771C82.9454 136.843 79.2122 134.947 74.9876 135C70.759 135.053 67.0555 136.919 63.3676 138.831C60.739 137.632 57.788 136.114 54.4638 134.251C61.5746 132.637 67.4408 126.776 74.9876 126.678C82.527 126.584 88.5001 132.696 95.6579 134.129C92.3019 136.016 89.3214 137.559 86.6725 138.771ZM85.6889 24.287L89.7561 25.5278L91.3183 21.5881L92.8825 25.5278L96.9497 24.287L94.8285 27.9614L98.3423 30.3523L94.1352 30.9928L94.4432 35.2191L91.3183 32.3432L88.1919 35.2191L88.5035 30.9928L84.2964 30.3523L87.8066 27.9614L85.6889 24.287ZM101.832 49.6391L105.901 50.8763L107.465 46.9366L109.026 50.8763L113.097 49.6391L110.976 53.3098L114.487 55.7044L110.28 56.3449L110.59 60.5664L107.465 57.6919L104.339 60.5664L104.647 56.3449L100.444 55.7044L103.954 53.3098L101.832 49.6391ZM103.622 10.557L107.69 11.7978L109.251 7.85803L110.815 11.7978L114.884 10.557L112.763 14.2277L116.276 16.6223L112.069 17.2627L112.378 21.4854L109.251 18.6098L106.126 21.4854L106.437 17.2627L102.229 16.6223L105.741 14.2277L103.622 10.557ZM114.286 42.2256L110.875 39.9041L107.495 42.2256L108.662 38.3118L105.391 35.7934L109.51 35.6307L110.887 31.8184L112.283 35.6968L116.386 35.7934L113.114 38.2671L114.286 42.2256ZM138.322 1.25858C138.302 0.896527 138.138 0.55682 137.857 0.320683C137.591 0.0848484 137.237 -7.34848e-06 136.876 -7.34848e-06C136.876 -7.34848e-06 13.4509 -7.34848e-06 13.1013 -7.34848e-06C12.7517 -7.34848e-06 12.408 0.0908877 12.1378 0.320683C11.8652 0.55682 11.697 0.896527 11.6756 1.25858C11.6673 1.48023 10.5 23.5792 10.5 51.9238C10.5 81.421 12.4732 97.2222 17.7765 110.223C23.1593 123.422 31.4669 129.939 48.0499 139.555C63.9246 148.759 70.5694 150 74.9994 150C79.4316 150 86.0706 148.759 101.945 139.555C118.531 129.939 126.838 123.422 132.225 110.223C137.525 97.2222 139.499 81.421 139.499 51.9238C139.499 23.5792 138.331 1.48023 138.322 1.25858Z" fill="#5E2BFF"/>
</svg>
