<svg width="150" height="150" viewBox="0 0 150 150" fill="none" xmlns="http://www.w3.org/2000/svg">
<g clip-path="url(#clip0_63_54)">
<path d="M44.4507 69.3251C43.7624 68.426 42.7462 67.8364 41.6244 67.6852C40.5026 67.534 39.3666 67.8336 38.4651 68.5183C37.9347 68.9368 37.5068 69.471 37.2142 70.0801L0.463167 143.638C-0.0573527 144.68 -0.14285 145.887 0.225468 146.992C0.593786 148.098 1.38578 149.012 2.42736 149.533C3.03618 149.841 3.70927 150.001 4.39155 149.999H55.5949C56.415 150.02 57.2234 149.801 57.9212 149.369C58.6189 148.937 59.1757 148.311 59.5233 147.568C70.5744 124.731 63.8755 90.0106 44.4507 69.3251Z" fill="#5E2BFF"/>
<path d="M71.4636 2.38686C62.3019 16.4918 56.9626 32.7372 55.9694 49.5294C54.9763 66.3216 58.3634 83.0836 65.7984 98.1711L90.4852 147.568C90.8499 148.298 91.4105 148.912 92.1044 149.341C92.7982 149.771 93.5978 149.998 94.4136 149.999H145.607C146.184 150 146.756 149.887 147.289 149.667C147.823 149.446 148.308 149.123 148.716 148.714C149.125 148.306 149.448 147.821 149.668 147.287C149.889 146.753 150.001 146.181 150 145.603C150.001 144.922 149.845 144.25 149.545 143.638L78.9378 2.36617C78.6027 1.65827 78.0736 1.06011 77.412 0.641238C76.7504 0.222366 75.9836 0 75.2007 0C74.4178 0 73.6509 0.222366 72.9894 0.641238C72.3278 1.06011 71.7987 1.65827 71.4636 2.36617V2.38686Z" fill="#5E2BFF"/>
</g>
<defs>
<clipPath id="clip0_63_54">
<rect width="150" height="150" fill="white"/>
</clipPath>
</defs>
</svg>
