<svg width="96" height="96" viewBox="0 0 96 96" fill="none" xmlns="http://www.w3.org/2000/svg">
<circle cx="48" cy="48" r="48" fill="#FFF7EB"/>
<path d="M48 55.2C49.944 55.2 51.6 54.48 53.064 53.064C54.48 51.6 55.2 49.944 55.2 48C55.2 46.056 54.48 44.4 53.064 42.936C51.6 41.52 49.944 40.8 48 40.8C46.056 40.8 44.4 41.52 42.936 42.936C41.52 44.4 40.8 46.056 40.8 48C40.8 49.944 41.52 51.6 42.936 53.064C44.4 54.48 46.056 55.2 48 55.2ZM48 24C54.6 24 60.24 26.4 64.92 31.08C69.6 35.76 72 41.4 72 48V51.48C72 53.88 71.16 55.92 69.6 57.6C67.92 59.208 66 60 63.6 60C60.72 60 58.344 58.8 56.544 56.4C54.144 58.8 51.312 60 48 60C44.712 60 41.88 58.8 39.504 56.496C37.2 54.12 36 51.312 36 48C36 44.712 37.2 41.88 39.504 39.504C41.88 37.2 44.712 36 48 36C51.312 36 54.12 37.2 56.496 39.504C58.8 41.88 60 44.712 60 48V51.48C60 52.464 60.384 53.328 61.104 54.072C61.824 54.816 62.664 55.2 63.6 55.2C64.608 55.2 65.448 54.816 66.168 54.072C66.888 53.328 67.2 52.464 67.2 51.48V48C67.2 42.744 65.352 38.232 61.56 34.44C57.768 30.648 53.256 28.8 48 28.8C42.744 28.8 38.232 30.648 34.44 34.44C30.648 38.232 28.8 42.744 28.8 48C28.8 53.256 30.648 57.768 34.44 61.56C38.232 65.352 42.744 67.2 48 67.2H60V72H48C41.4 72 35.76 69.6 31.08 64.92C26.4 60.24 24 54.6 24 48C24 41.4 26.4 35.76 31.08 31.08C35.76 26.4 41.4 24 48 24Z" fill="#3F3930"/>
</svg>
