<svg width="96" height="96" viewBox="0 0 96 96" fill="none" xmlns="http://www.w3.org/2000/svg">
<circle cx="48" cy="48" r="48" fill="#FFF7EB"/>
<path d="M48 24C44.8483 24 41.7274 24.6362 38.8156 25.8722C35.9038 27.1083 33.258 28.92 31.0294 31.204C26.5286 35.8166 24 42.0726 24 48.5958C24 59.4672 30.888 68.6907 40.416 71.9619C41.616 72.1587 42 71.3962 42 70.7321V66.5754C35.352 68.0512 33.936 63.2796 33.936 63.2796C32.832 60.4264 31.272 59.664 31.272 59.664C29.088 58.139 31.44 58.1882 31.44 58.1882C33.84 58.3604 35.112 60.7216 35.112 60.7216C37.2 64.4602 40.728 63.3534 42.096 62.7631C42.312 61.1643 42.936 60.0821 43.608 59.4672C38.28 58.8523 32.688 56.7371 32.688 47.3661C32.688 44.6359 33.6 42.4469 35.16 40.7006C34.92 40.0857 34.08 37.5277 35.4 34.2073C35.4 34.2073 37.416 33.5432 42 36.7161C43.896 36.1749 45.96 35.9044 48 35.9044C50.04 35.9044 52.104 36.1749 54 36.7161C58.584 33.5432 60.6 34.2073 60.6 34.2073C61.92 37.5277 61.08 40.0857 60.84 40.7006C62.4 42.4469 63.312 44.6359 63.312 47.3661C63.312 56.7617 57.696 58.8277 52.344 59.4426C53.208 60.2051 54 61.7054 54 63.9928V70.7321C54 71.3962 54.384 72.1833 55.608 71.9619C65.136 68.6661 72 59.4672 72 48.5958C72 45.3659 71.3792 42.1675 70.1731 39.1834C68.967 36.1993 67.1992 33.4879 64.9706 31.204C62.742 28.92 60.0962 27.1083 57.1844 25.8722C54.2726 24.6362 51.1517 24 48 24Z" fill="#3F3930"/>
</svg>
