<svg width="96" height="96" viewBox="0 0 96 96" fill="none" xmlns="http://www.w3.org/2000/svg">
<circle cx="48" cy="48" r="48" fill="#FFF7EB"/>
<path d="M64.3333 27C65.571 27 66.758 27.4917 67.6332 28.3668C68.5083 29.242 69 30.429 69 31.6667V64.3333C69 65.571 68.5083 66.758 67.6332 67.6332C66.758 68.5083 65.571 69 64.3333 69H31.6667C30.429 69 29.242 68.5083 28.3668 67.6332C27.4917 66.758 27 65.571 27 64.3333V31.6667C27 30.429 27.4917 29.242 28.3668 28.3668C29.242 27.4917 30.429 27 31.6667 27H64.3333ZM63.1667 63.1667V50.8C63.1667 48.7826 62.3652 46.8478 60.9387 45.4213C59.5122 43.9947 57.5774 43.1933 55.56 43.1933C53.5767 43.1933 51.2667 44.4067 50.1467 46.2267V43.6367H43.6367V63.1667H50.1467V51.6633C50.1467 49.8667 51.5933 48.3967 53.39 48.3967C54.2564 48.3967 55.0873 48.7408 55.6999 49.3535C56.3125 49.9661 56.6567 50.797 56.6567 51.6633V63.1667H63.1667ZM36.0533 39.9733C37.093 39.9733 38.09 39.5603 38.8252 38.8252C39.5603 38.09 39.9733 37.093 39.9733 36.0533C39.9733 33.8833 38.2233 32.11 36.0533 32.11C35.0075 32.11 34.0045 32.5255 33.265 33.265C32.5255 34.0045 32.11 35.0075 32.11 36.0533C32.11 38.2233 33.8833 39.9733 36.0533 39.9733ZM39.2967 63.1667V43.6367H32.8333V63.1667H39.2967Z" fill="#3F3930"/>
</svg>
