<svg width="150" height="150" viewBox="0 0 150 150" fill="none" xmlns="http://www.w3.org/2000/svg">
<path fill-rule="evenodd" clip-rule="evenodd" d="M0 42.5571V45.8741C0.686582 46.4538 1.13309 47.2278 1.33953 48.196C0.0392107 50.9453 0.708974 53.0461 3.34882 54.4983L4.01858 59.4738C3.34541 67.9809 3.23378 76.4946 3.6837 85.0147C5.69605 87.7313 7.48206 87.5097 9.04181 84.3513C10.9639 76.2465 12.5267 68.0647 13.7301 59.8055C18.2042 68.1079 23.8972 75.5154 30.8091 82.0294C31.4678 82.4214 31.9143 82.1999 32.1486 81.366C32.4661 79.5423 33.1359 77.8838 34.1579 76.3905C36.1491 79.336 38.3816 82.1003 40.8556 84.683C36.392 89.1045 31.2572 92.5316 25.451 94.9656C21.7583 87.9787 16.4002 86.4304 9.37669 90.3218C9.92924 90.9096 10.599 91.1305 11.386 90.9853C11.2904 92.1542 11.5136 93.26 12.0557 94.3022C8.52555 97.3167 7.29767 101.076 8.37204 105.58C8.6524 104.803 9.09894 104.139 9.71157 103.59C10.8392 104.818 12.0672 105.924 13.3953 106.907C13.8565 110.049 14.9728 112.924 16.7441 115.531C17.3373 114.984 17.5605 114.32 17.4138 113.541C18.5519 113.647 19.6682 113.537 20.7627 113.209C22.6545 111.8 24.329 110.142 25.7859 108.234C28.7059 109.882 31.7198 109.992 34.8277 108.565C36.1341 107.415 36.8039 105.977 36.837 104.253C47.0292 104.785 55.4012 101.247 61.9531 93.6388C62.6254 91.3216 62.2905 89.2213 60.9485 87.3366C67.8805 86.7282 73.1268 83.5213 76.6879 77.7173C76.7944 81.3102 77.2411 84.8488 78.0274 88.3316L86.0646 100.273C87.2836 107.623 84.7157 113.151 78.3623 116.858C72.9198 113.151 66.8919 111.934 60.2787 113.209C56.2563 115.315 54.6935 118.522 55.5904 122.828C56.6006 120.893 58.0518 120.451 59.9438 121.502C59.3693 123.26 59.0344 125.14 58.9392 127.141C58.7608 129.328 59.4306 131.207 60.9485 132.779C61.4716 131.964 61.8065 131.08 61.9531 130.126C64.1409 131.188 66.4851 131.741 68.9856 131.784C70.3874 134.611 72.3967 136.933 75.0135 138.75C75.7804 137.903 75.7804 137.019 75.0135 136.096C79.6 134.981 82.1679 132.107 82.7158 127.472C86.9587 122.675 89.0799 123.339 89.0785 129.462C93.8941 126.334 96.0153 121.912 95.4413 116.194C103.234 110.683 108.146 103.386 110.176 94.3022C107.812 93.8836 105.468 93.331 103.144 92.6437C101.385 91.1869 100.716 89.3068 101.134 87.0049C104.512 87.3419 107.861 87.8951 111.181 88.6634C116.26 88.7178 121.283 88.8279 126.25 88.995C129.021 92.7983 130.137 96.9996 129.599 101.6C127.489 103.528 125.256 105.297 122.902 106.907C120.544 112.083 121.66 116.506 126.25 120.175C126.262 118.651 126.151 117.103 125.916 115.531H128.595C128.95 118.866 130.736 120.746 133.953 121.17C133.041 120.119 132.594 118.902 132.613 117.521C135.562 117.262 137.571 115.714 138.641 112.877C141.648 113.965 144.327 113.412 146.678 111.219C145.812 110.894 144.919 110.783 143.999 110.887C144.554 108.918 144.666 106.927 144.334 104.917C143.055 103.155 142.05 101.275 141.32 99.2777C144.477 89.1908 143.919 79.3499 139.646 69.7565C139.368 69.4533 139.033 69.2317 138.641 69.0931C132.941 71.2604 127.136 71.5921 121.227 70.0882C120.21 69.1919 119.317 68.1968 118.548 67.1029C122.294 67.0194 126.089 66.9089 129.934 66.7712C135.385 66.1417 140.52 64.5938 145.339 62.1274C147.838 59.6782 148.955 56.6929 148.687 53.1715C148.855 50.0743 147.961 47.3101 146.008 44.879C146.621 44.2719 147.234 43.6647 147.847 43.0575C148.462 42.4485 149.077 41.8394 149.692 41.2303C150.194 40.4773 150.083 39.8139 149.357 39.2401C144.94 37.6171 140.364 36.9537 135.627 37.2499C123.626 37.9057 111.681 39.1219 99.7947 40.8986C94.0375 41.9859 88.6793 41.1014 83.7204 38.245C81.7895 35.4133 82.0125 32.7597 84.3902 30.2842C86.3519 29.7686 88.25 29.8792 90.0832 30.6159C90.7375 32.4462 90.1796 33.773 88.4088 34.5963C91.499 36.8485 94.8479 37.1802 98.4552 35.5914C99.6367 33.925 100.753 32.2665 101.804 30.6159C108.175 34.0694 114.873 35.0645 121.897 33.6012C129.956 28.1912 138.551 27.1961 147.683 30.6159C146.131 23.8956 141.778 20.3574 134.622 20.0015C130.564 20.7928 126.545 21.7879 122.567 22.9868C118.014 23.6077 113.549 23.276 109.171 21.9917C115.633 18.2132 122.554 16.7758 129.934 17.6796C125.092 12.2479 119.064 10.2577 111.85 11.709C105.865 14.0105 100.06 16.6641 94.4366 19.6698C90.0061 20.4048 85.5408 20.8471 81.0414 20.9966C74.1328 23.9544 71.3425 29.151 72.6693 36.5865C75.2131 43.5184 80.2363 47.6093 87.739 48.8594L93.0971 49.1911C100.686 48.4174 108.276 47.6435 115.869 46.8692C121.897 46.4269 127.925 46.4269 133.953 46.8692C139.235 48.6992 140.798 52.0162 138.641 56.8202C130.135 60.156 121.428 60.5982 112.52 58.147C108.046 55.3066 103.134 53.8692 97.7854 53.8349C89.3304 55.0315 80.8465 55.916 72.3344 56.4885C72.4175 49.1079 70.4082 42.3633 66.3066 36.2548C65.2266 35.777 64.222 35.8875 63.2926 36.5865C63.0654 35.0379 63.1771 33.4899 63.6275 31.9427C63.5646 30.4909 63.1181 29.1641 62.288 27.9623C64.8102 22.8171 63.4707 18.9473 58.2694 16.3528C57.5996 15.9105 56.9299 15.9105 56.2601 16.3528C55.6216 17.6499 54.7286 18.7555 53.5811 19.6698C48.8557 20.176 44.3906 21.5028 40.1858 23.6502C38.0009 27.3313 34.7637 29.432 30.4742 29.9525C30.7169 33.6439 32.1681 36.8503 34.8277 39.5718C33.2199 39.6951 31.6572 40.0268 30.1393 40.5669C30.2795 40.9556 30.5028 41.2873 30.8091 41.562L36.837 42.2254C34.0577 44.9979 34.1693 47.5409 37.1719 49.8545C39.168 48.6957 41.2889 48.364 43.5346 48.8594C39.8972 52.4602 36.7717 56.4406 34.1579 60.8006C29.4872 59.8688 25.357 57.7681 21.7673 54.4983C21.1491 53.4804 20.8142 52.3747 20.7627 51.1813C22.233 46.5718 21.0051 42.8126 17.079 39.9035C16.84 37.243 16.9516 34.5894 17.4138 31.9427C22.1655 32.4327 24.8445 30.3319 25.451 25.6404L30.1393 24.977C32.1232 22.1196 34.8022 20.3505 38.1765 19.6698C40.851 16.6862 44.1998 14.9172 48.223 14.3626C44.2321 13.0668 40.2135 13.1774 36.1672 14.6943C34.7452 14.1558 33.294 13.7135 31.8138 13.3675C29.0851 14.3348 26.2944 14.9982 23.4417 15.3577C20.4199 14.9688 17.4059 14.5265 14.3999 14.0309C10.068 14.0742 6.71918 15.8433 4.35346 19.3381C4.78789 26.2007 4.67626 33.0558 4.01858 39.9035C2.13147 40.0079 0.791949 40.8925 0 42.5571ZM47.5532 27.6306C45.3318 27.3 43.0992 27.1895 40.8556 27.2989V30.6159C43.6605 30.8854 45.893 29.8903 47.5532 27.6306Z" fill="#5E2BFF"/>
</svg>
